<svg width="120" height="120" viewBox="0 0 120 120" fill="none" xmlns="http://www.w3.org/2000/svg">
  <circle cx="60" cy="60" r="56" fill="hsl(216, 14%, 10%)" stroke="hsl(216, 10%, 18%)" stroke-width="2"/>
  <circle cx="60" cy="60" r="52" fill="hsl(216, 16%, 8%)" stroke="hsl(216, 10%, 14%)" stroke-width="1"/>
  <defs>
    <linearGradient id="lb" x1="60" y1="38" x2="60" y2="86" gradientUnits="userSpaceOnUse">
      <stop stop-color="hsl(4, 78%, 42%)"/>
      <stop offset="1" stop-color="hsl(2, 72%, 28%)"/>
    </linearGradient>
    <linearGradient id="lg" x1="60" y1="38" x2="60" y2="70" gradientUnits="userSpaceOnUse">
      <stop stop-color="hsl(15, 90%, 70%)" stop-opacity="0.25"/>
      <stop offset="1" stop-color="hsl(15, 90%, 70%)" stop-opacity="0"/>
    </linearGradient>
  </defs>
  <ellipse cx="60" cy="62" rx="18" ry="24" fill="url(#lb)"/>
  <ellipse cx="60" cy="62" rx="18" ry="24" fill="url(#lg)"/>
  <ellipse cx="60" cy="42" rx="14" ry="10" fill="url(#lb)"/>
  <circle cx="52" cy="36" r="3" fill="hsl(0, 0%, 8%)"/>
  <circle cx="68" cy="36" r="3" fill="hsl(0, 0%, 8%)"/>
  <circle cx="51.5" cy="35" r="1.2" fill="hsl(0, 0%, 70%)"/>
  <circle cx="67.5" cy="35" r="1.2" fill="hsl(0, 0%, 70%)"/>
  <path d="M52 34 Q42 20 32 14" stroke="hsl(4, 75%, 42%)" stroke-width="2" stroke-linecap="round" fill="none"/>
  <path d="M68 34 Q78 20 88 14" stroke="hsl(4, 75%, 42%)" stroke-width="2" stroke-linecap="round" fill="none"/>
  <path d="M50 36 Q38 28 28 26" stroke="hsl(4, 75%, 42%)" stroke-width="1.5" stroke-linecap="round" fill="none"/>
  <path d="M70 36 Q82 28 92 26" stroke="hsl(4, 75%, 42%)" stroke-width="1.5" stroke-linecap="round" fill="none"/>
  <path d="M44 50 Q32 46 24 42" stroke="hsl(4, 78%, 42%)" stroke-width="5" stroke-linecap="round" fill="none"/>
  <path d="M24 42 Q18 36 14 30" stroke="hsl(2, 80%, 38%)" stroke-width="4" stroke-linecap="round" fill="none"/>
  <path d="M24 42 Q20 48 16 44" stroke="hsl(2, 80%, 38%)" stroke-width="4" stroke-linecap="round" fill="none"/>
  <ellipse cx="22" cy="40" rx="6" ry="8" fill="url(#lb)" transform="rotate(-15 22 40)"/>
  <path d="M76 50 Q88 46 96 42" stroke="hsl(4, 78%, 42%)" stroke-width="5" stroke-linecap="round" fill="none"/>
  <path d="M96 42 Q102 36 106 30" stroke="hsl(2, 80%, 38%)" stroke-width="4" stroke-linecap="round" fill="none"/>
  <path d="M96 42 Q100 48 104 44" stroke="hsl(2, 80%, 38%)" stroke-width="4" stroke-linecap="round" fill="none"/>
  <ellipse cx="98" cy="40" rx="6" ry="8" fill="url(#lb)" transform="rotate(15 98 40)"/>
  <ellipse cx="60" cy="76" rx="16" ry="6" fill="hsl(2, 75%, 35%)"/>
  <ellipse cx="60" cy="82" rx="14" ry="5" fill="hsl(2, 72%, 32%)"/>
  <ellipse cx="60" cy="87" rx="12" ry="4" fill="hsl(2, 70%, 30%)"/>
  <ellipse cx="60" cy="91" rx="10" ry="3.5" fill="hsl(2, 68%, 28%)"/>
  <path d="M50 94 Q48 102 44 106 Q52 100 60 102 Q68 100 76 106 Q72 102 70 94Z" fill="hsl(2, 72%, 32%)"/>
  <line x1="44" y1="48" x2="30" y2="54" stroke="hsl(4, 72%, 38%)" stroke-width="2" stroke-linecap="round"/>
  <line x1="76" y1="48" x2="90" y2="54" stroke="hsl(4, 72%, 38%)" stroke-width="2" stroke-linecap="round"/>
  <line x1="44" y1="52" x2="28" y2="60" stroke="hsl(4, 72%, 38%)" stroke-width="2" stroke-linecap="round"/>
  <line x1="76" y1="52" x2="92" y2="60" stroke="hsl(4, 72%, 38%)" stroke-width="2" stroke-linecap="round"/>
  <line x1="44" y1="56" x2="26" y2="66" stroke="hsl(4, 72%, 38%)" stroke-width="2" stroke-linecap="round"/>
  <line x1="76" y1="56" x2="94" y2="66" stroke="hsl(4, 72%, 38%)" stroke-width="2" stroke-linecap="round"/>
</svg>